<?xml version="1.0" encoding="utf-8"?>
<!-- Generator: Adobe Illustrator 23.0.1, SVG Export Plug-In . SVG Version: 6.00 Build 0)  -->
<svg version="1.1" id="Layer_1" xmlns="http://www.w3.org/2000/svg" xmlns:xlink="http://www.w3.org/1999/xlink" x="0px" y="0px"
	 viewBox="0 0 100 100" style="enable-background:new 0 0 100 100;" xml:space="preserve">
<path d="M50,5C25.19,5,5,25.19,5,50c0,13.65,6.1,26.42,16.74,35.01C29.71,91.45,39.75,95,50,95c10.25,0,20.29-3.55,28.26-9.99
	C88.9,76.42,95,63.65,95,50C95,25.19,74.81,5,50,5z M25,82.48V80c0-13.79,11.21-25,25-25s25,11.21,25,25v2.48
	C67.78,88.05,59.16,91,50,91C40.84,91,32.22,88.05,25,82.48z M38,39c0-6.62,5.38-12,12-12c6.62,0,12,5.38,12,12s-5.38,12-12,12
	C43.38,51,38,45.62,38,39z M78.97,78.99c-0.43-12.49-8.79-23-20.2-26.63C63.12,49.5,66,44.58,66,39c0-8.82-7.18-16-16-16
	s-16,7.18-16,16c0,5.58,2.88,10.5,7.22,13.36c-11.41,3.63-19.77,14.14-20.2,26.63C13.34,71.33,9,60.98,9,50C9,27.39,27.39,9,50,9
	s41,18.39,41,41C91,60.98,86.66,71.33,78.97,78.99z"/>
</svg>
